<svg version="1.1" viewBox="0.0 0.0 715.1994750656168 715.3333333333334" fill="none" stroke="none" stroke-linecap="square" stroke-miterlimit="10" xmlns:xlink="http://www.w3.org/1999/xlink" xmlns="http://www.w3.org/2000/svg"><clipPath id="p.0"><path d="m0 0l715.19946 0l0 715.3333l-715.19946 0l0 -715.3333z" clip-rule="nonzero"/></clipPath><g clip-path="url(#p.0)"><path fill="#000000" fill-opacity="0.0" d="m0 0l715.19946 0l0 715.3333l-715.19946 0z" fill-rule="evenodd"/><path fill="#f7b300" d="m424.94043 288.76822l0 0c116.149536 -0.010681152 210.39679 93.128204 210.69598 208.21811c0.29925537 115.089905 -93.462524 208.70874 -209.61053 209.29102l-0.7100525 -139.06299c39.48172 -0.190979 71.35614 -31.443726 71.256256 -69.86658c-0.09988403 -38.42282 -32.136414 -69.51825 -71.61862 -69.51474z" fill-rule="evenodd"/><path fill="#3aaa57" d="m425.96933 567.0971l0 139.21259l-208.7559 0l0 -139.21259z" fill-rule="evenodd"/><path fill="#2285c0" d="m147.62164 79.89366l139.18109 0l0 556.8189l-139.18109 0z" fill-rule="evenodd"/><path fill="#2285c0" d="m147.6059 79.853l0 0c0 -38.442497 31.156738 -69.6063 69.590546 -69.6063l0 0c18.456558 0 36.157196 7.3335 49.207947 20.387213c13.050751 13.053715 20.382599 30.758347 20.382599 49.219086l0 0c0 38.442497 -31.156754 69.60629 -69.590546 69.60629l0 0c-38.433807 0 -69.590546 -31.163795 -69.590546 -69.60629z" fill-rule="evenodd"/><path fill="#3aaa57" d="m356.37762 636.7034l0 0c0 -38.442505 31.156738 -69.60632 69.590546 -69.60632l0 0c18.456573 0 36.157196 7.333496 49.207947 20.387207c13.050781 13.053711 20.382599 30.758362 20.382599 49.219116l0 0c0 38.442505 -31.156738 69.60626 -69.590546 69.60626l0 0c-38.433807 0 -69.590546 -31.163757 -69.590546 -69.60626z" fill-rule="evenodd"/><path fill="#2285c0" d="m217.20079 567.0971l69.574814 0l0 69.60632l-69.574814 0z" fill-rule="evenodd"/><path fill="#2285c0" d="m147.6059 636.7034l0 0c0 -38.442505 31.156738 -69.60632 69.590546 -69.60632l0 0c18.456558 0 36.157196 7.333496 49.207947 20.387207c13.050751 13.053711 20.382599 30.758362 20.382599 49.219116l0 0c0 38.442505 -31.156754 69.60626 -69.590546 69.60626l0 0c-38.433807 0 -69.590546 -31.163757 -69.590546 -69.60626z" fill-rule="evenodd"/><path fill="#ce352c" d="m216.94455 288.6719l69.82678 0l0 139.14963l-69.82678 0z" fill-rule="evenodd"/><path fill="#1e77ad" d="m286.8102 398.4672l0 168.62991l-126.36221 -168.62991z" fill-rule="evenodd"/><path fill="#d14836" d="m147.6059 358.2467l0 0c0 -38.42508 31.156738 -69.5748 69.590546 -69.5748l0 0c18.456558 0 36.157196 7.3302 49.207947 20.37799c13.050751 13.047821 20.382599 30.744446 20.382599 49.196808l0 0c0 38.42511 -31.156754 69.57483 -69.590546 69.57483l0 0c-38.433807 0 -69.590546 -31.14972 -69.590546 -69.57483z" fill-rule="evenodd"/><path fill="#d14836" d="m425.97147 288.70465l0 139.1496l-208.78741 0l0 -139.1496z" fill-rule="evenodd"/><path fill="#f7b300" d="m356.37762 358.27823l0 0c0 -38.442505 31.156738 -69.60632 69.590546 -69.60632l0 0c18.456573 0 36.157196 7.333496 49.207947 20.387238c13.050781 13.053711 20.382599 30.758331 20.382599 49.219086l0 0c0 38.442474 -31.156738 69.60629 -69.590546 69.60629l0 0c-38.433807 0 -69.590546 -31.163818 -69.590546 -69.60629z" fill-rule="evenodd"/><path fill="#999999" d="m23.363026 575.8727l90.17323 52.0l-5.0078735 8.692932l-90.17323 -52.0z" fill-rule="evenodd"/><path fill="#999999" d="m97.98187 636.5608l0 0c0 -5.6446533 4.575859 -10.220459 10.220474 -10.220459l0 0c2.71064 0 5.310257 1.0767822 7.226967 2.9934692c1.9167099 1.916748 2.9935074 4.5163574 2.9935074 7.2269897l0 0c0 5.6445923 -4.5758667 10.220459 -10.220474 10.220459l0 0c-5.644615 0 -10.220474 -4.5758667 -10.220474 -10.220459z" fill-rule="evenodd"/><path fill="#999999" d="m14.750164 581.27264l96.50394 55.77954l-96.50394 55.77948z" fill-rule="evenodd"/><path fill="#999999" d="m8.198942 584.8108l0 0c0 -5.6446533 4.575861 -10.220459 10.220472 -10.220459l0 0c2.710638 0 5.310255 1.0767822 7.226965 2.9934692c1.9167099 1.916748 2.9935074 4.5163574 2.9935074 7.2269897l0 0c0 5.6445923 -4.575861 10.220459 -10.220472 10.220459l0 0c-5.6446114 0 -10.220472 -4.5758667 -10.220472 -10.220459z" fill-rule="evenodd"/><path fill="#999999" d="m18.286253 584.43567l-0.031496048 103.968506l-10.047244 0l0.031496048 -103.968506z" fill-rule="evenodd"/><path fill="#999999" d="m113.495735 645.31445l-90.04724 51.968506l-5.0393696 -8.692871l90.04725 -51.968506z" fill-rule="evenodd"/><path fill="#999999" d="m8.207513 688.3767l0 0c0 -5.6445923 4.575862 -10.220459 10.220473 -10.220459l0 0c2.710638 0 5.310255 1.0767822 7.226965 2.9935303c1.9167099 1.916687 2.9935074 4.5162964 2.9935074 7.2269287l0 0c0 5.6446533 -4.575861 10.220459 -10.220472 10.220459l0 0c-5.6446114 0 -10.220473 -4.5758057 -10.220473 -10.220459z" fill-rule="evenodd"/><path fill="#282c34" d="m425.97113 460.7043l0 0c0 -24.692413 20.01715 -44.709564 44.709564 -44.709564l178.83286 0l0 0c11.857727 0 23.229736 4.710449 31.61444 13.095123c8.384644 8.384674 13.095093 19.756714 13.095093 31.61444l0 182.99033c0 24.692383 -20.01715 44.709534 -44.709534 44.709534l-178.83286 0c-24.692413 0 -44.709564 -20.01715 -44.709564 -44.709534z" fill-rule="evenodd"/><path stroke="#f3f3f3" stroke-width="16.0" stroke-linejoin="round" stroke-linecap="butt" d="m425.97113 460.7043l0 0c0 -24.692413 20.01715 -44.709564 44.709564 -44.709564l178.83286 0l0 0c11.857727 0 23.229736 4.710449 31.61444 13.095123c8.384644 8.384674 13.095093 19.756714 13.095093 31.61444l0 182.99033c0 24.692383 -20.01715 44.709534 -44.709534 44.709534l-178.83286 0c-24.692413 0 -44.709564 -20.01715 -44.709564 -44.709534z" fill-rule="evenodd"/><path fill="#000000" fill-opacity="0.0" d="m443.50073 495.03427l208.75592 0l0 180.97635l-208.75592 0z" fill-rule="evenodd"/><path fill="#ffffff" d="m458.68823 621.22174l0 -18.421875l45.703125 -17.96875l-45.703125 -17.765625l0 -18.296875l65.484375 28.3125l0 15.625l-65.484375 28.515625z" fill-rule="nonzero"/><path fill="#ffffff" d="m529.3779 653.128l0 -9.484375l60.828125 0l0 9.484375l-60.828125 0z" fill-rule="nonzero"/></g></svg>