<svg version="1.1" viewBox="0.0 0.0 715.1994750656168 715.3333333333334" fill="none" stroke="none" stroke-linecap="square" stroke-miterlimit="10" xmlns:xlink="http://www.w3.org/1999/xlink" xmlns="http://www.w3.org/2000/svg"><clipPath id="p.0"><path d="m0 0l715.19946 0l0 715.3333l-715.19946 0l0 -715.3333z" clip-rule="nonzero"/></clipPath><g clip-path="url(#p.0)"><path fill="#000000" fill-opacity="0.0" d="m0 0l715.19946 0l0 715.3333l-715.19946 0z" fill-rule="evenodd"/><path fill="#000000" fill-opacity="0.0" d="m79.06566 221.11005l498.70868 0l0 355.1496l-498.70868 0z" fill-rule="evenodd"/><path fill="#282c34" d="m37.19029 139.10187l0 0c0 -58.986923 47.818356 -106.80528 106.80528 -106.80528l427.20834 0l0 0c28.326477 0 55.49286 11.252666 75.522705 31.282543c20.029907 20.029877 31.282593 47.19622 31.282593 75.522736l0 437.12958c0 58.98694 -47.81836 106.8053 -106.8053 106.8053l-427.20834 0c-58.98693 0 -106.80528 -47.81836 -106.80528 -106.8053z" fill-rule="evenodd"/><path stroke="#2285c0" stroke-width="38.22047244094488" stroke-linejoin="round" stroke-linecap="butt" d="m37.19029 139.10187l0 0c0 -58.986923 47.818356 -106.80528 106.80528 -106.80528l427.20834 0l0 0c28.326477 0 55.49286 11.252666 75.522705 31.282543c20.029907 20.029877 31.282593 47.19622 31.282593 75.522736l0 437.12958c0 58.98694 -47.81836 106.8053 -106.8053 106.8053l-427.20834 0c-58.98693 0 -106.80528 -47.81836 -106.80528 -106.8053z" fill-rule="evenodd"/><path fill="#3aaa57" d="m125.572136 593.38055l0 0c-10.889137 -10.889099 -10.889137 -28.543884 0 -39.433044l95.81103 -95.811035c5.2291565 -5.229126 12.321396 -8.16684 19.716537 -8.16684c7.3951263 0 14.487381 2.9377136 19.716522 8.16684l0 0l0 0c10.88916 10.88916 10.88916 28.543945 0 39.433075l-95.81102 95.811005c-10.88913 10.88916 -28.54393 10.88916 -39.433067 0z" fill-rule="evenodd"/><path fill="#d14836" d="m125.95009 362.13647l0 0c10.889145 -10.88913 28.54393 -10.88913 39.433075 0l95.81102 95.811035c5.2291565 5.2291565 8.16687 12.321411 8.16687 19.716553c0 7.395111 -2.9377136 14.487366 -8.16687 19.716522l0 0l0 0c-10.889145 10.88913 -28.54393 10.88913 -39.433075 0l-95.81102 -95.811035c-10.889137 -10.88913 -10.889137 -28.543915 0 -39.433075z" fill-rule="evenodd"/><path fill="#f7b300" d="m284.94012 568.2636l0 0c0 -15.403137 12.486664 -27.88977 27.88977 -27.88977l135.49606 0c7.39682 0 14.490692 2.9383545 19.721039 8.168701c5.2303467 5.2303467 8.168701 12.324219 8.168701 19.72107l0 0l0 0c0 15.403076 -12.486664 27.88977 -27.88974 27.88977l-135.49606 0c-15.403107 0 -27.88977 -12.486694 -27.88977 -27.88977z" fill-rule="evenodd"/></g></svg>